<svg width="80" height="24" viewBox="0 0 80 24" fill="none" xmlns="http://www.w3.org/2000/svg">
<path d="M2 13.5C1.17157 13.5 0.5 12.8284 0.5 12C0.5 11.1716 1.17157 10.5 2 10.5L2 13.5ZM79.0607 10.9393C79.6464 11.5251 79.6464 12.4749 79.0607 13.0607L69.5147 22.6066C68.9289 23.1924 67.9792 23.1924 67.3934 22.6066C66.8076 22.0208 66.8076 21.0711 67.3934 20.4853L75.8787 12L67.3934 3.51472C66.8076 2.92894 66.8076 1.97919 67.3934 1.3934C67.9792 0.807618 68.9289 0.807618 69.5147 1.3934L79.0607 10.9393ZM2 10.5L78 10.5L78 13.5L2 13.5L2 10.5Z" fill="#E98B76"/>
</svg>
