<svg width="36" height="27" viewBox="0 0 36 27" fill="none" xmlns="http://www.w3.org/2000/svg">
<path fill-rule="evenodd" clip-rule="evenodd" d="M25.0207 4.5C26.1456 4.5 27.1131 5.355 27.248 6.48C27.248 6.48 27.383 7.65 27.518 8.7075C27.653 9.7425 28.373 10.5975 29.3404 10.9125C29.4754 10.9575 31.8153 10.98 31.8153 10.98C32.9177 11.1375 33.7501 12.0825 33.7501 13.2075V18C34.9876 18 36 19.0125 36 20.25C36 21.4875 34.9876 22.5 33.7501 22.5H31.5003C31.5003 24.975 29.4754 27 27.0006 27C24.5257 27 22.5008 24.975 22.5008 22.5H13.5014C13.5014 24.975 11.4765 27 9.00169 27C6.52684 27 4.50197 24.975 4.50197 22.5H2.25211C1.01469 22.5 0.00224986 21.4875 0.00224986 20.25C0.00224986 19.0125 1.01469 18 2.25211 18H15.7558C16.9459 18 18.0889 17.5252 18.9326 16.6838C19.7763 15.84 20.251 14.6947 20.251 13.5V6.75C20.251 5.5125 21.2634 4.5 22.5008 4.5H25.0207ZM27.0006 24.75C25.7631 24.75 24.7507 23.7375 24.7507 22.5C24.7507 21.2625 25.7631 20.25 27.0006 20.25C28.238 20.25 29.2504 21.2625 29.2504 22.5C29.2504 23.7375 28.238 24.75 27.0006 24.75ZM9.00169 24.75C7.76427 24.75 6.75183 23.7375 6.75183 22.5C6.75183 21.2625 7.76427 20.25 9.00169 20.25C10.2391 20.25 11.2515 21.2625 11.2515 22.5C11.2515 23.7375 10.2391 24.75 9.00169 24.75ZM15.0538 0C15.8368 0 16.586 0.3105 17.1372 0.86175C17.6884 1.41525 17.9989 2.1645 17.9989 2.94525V12.8025C17.9989 13.5855 17.6884 14.3347 17.1372 14.8882C16.586 15.4395 15.8368 15.75 15.0538 15.75H2.94732C2.16436 15.75 1.41516 15.4395 0.863946 14.8882C0.310481 14.3347 0 13.5855 0 12.8025V2.94525C0 2.1645 0.310481 1.41525 0.863946 0.86175C1.41516 0.3105 2.16436 0 2.94732 0H15.0538ZM24.8407 11.25C25.0432 11.25 25.2682 11.16 25.4032 11.0025C25.5607 10.8247 25.6281 10.62 25.6056 10.395C25.5157 9.54 25.3807 8.235 25.3132 7.44975C25.2682 7.0425 24.9307 6.75 24.5257 6.75H23.2883C22.8383 6.75 22.5008 7.11 22.5008 7.5375V10.4625C22.5008 10.6875 22.5908 10.8675 22.7258 11.025C22.8833 11.16 23.0633 11.25 23.2883 11.25H24.8407Z" fill="#E98B76"/>
</svg>
