<svg width="18" height="21" viewBox="0 0 18 21" fill="none" xmlns="http://www.w3.org/2000/svg">
<path fill-rule="evenodd" clip-rule="evenodd" d="M0 9.03214C0 9.02186 0 9.01029 0 9C0 4.03329 4.03329 0 9 0C13.9667 0 18 4.03329 18 9C18 9.01029 18 9.02186 18 9.03214C17.9794 15.7577 11.5071 19.7717 9.46157 20.4866C9.32529 20.5341 9.162 20.5714 9 20.5714C8.838 20.5714 8.68243 20.5406 8.53843 20.4866C6.49286 19.7717 0.0205714 15.7577 0 9.03214ZM9 5.14286C11.1291 5.14286 12.8571 6.87086 12.8571 9C12.8571 11.1291 11.1291 12.8571 9 12.8571C6.87086 12.8571 5.14286 11.1291 5.14286 9C5.14286 6.87086 6.87086 5.14286 9 5.14286Z" fill="#E98B76"/>
</svg>
