<svg width="28" height="30" viewBox="0 0 28 30" fill="none" xmlns="http://www.w3.org/2000/svg">
<path fill-rule="evenodd" clip-rule="evenodd" d="M28 7V23C28 26.864 21.726 30 14 30C6.274 30 0 26.864 0 23V7C0 3.136 6.274 0 14 0C21.726 0 28 3.136 28 7ZM14 19.458C19.436 19.458 23.848 21.046 23.848 23C23.848 24.954 19.436 26.542 14 26.542C8.564 26.542 4.152 24.954 4.152 23C4.152 21.046 8.564 19.458 14 19.458ZM15 4H13C12.448 4 12 4.448 12 5V8H9C8.448 8 8 8.448 8 9V11C8 11.552 8.448 12 9 12H12V15C12 15.552 12.448 16 13 16H15C15.552 16 16 15.552 16 15V12H19C19.552 12 20 11.552 20 11V9C20 8.448 19.552 8 19 8H16V5C16 4.448 15.552 4 15 4Z" fill="#E98B76"/>
</svg>
