<svg width="31" height="33" viewBox="0 0 31 33" fill="none" xmlns="http://www.w3.org/2000/svg">
<path fill-rule="evenodd" clip-rule="evenodd" d="M13.1148 1.32497C13.6396 0.498934 14.5374 0 15.5 0C16.4626 0 17.3604 0.498934 17.8852 1.32497C18.1102 1.68312 18.3311 2.02886 18.5317 2.34561C19.1011 3.24617 20.2117 3.61468 21.1925 3.22961C21.537 3.09297 21.914 2.94391 22.301 2.79072C23.2008 2.4367 24.2141 2.57334 24.9943 3.15094C25.7725 3.73061 26.2122 4.67259 26.1596 5.65596C26.1373 6.08036 26.115 6.49235 26.0967 6.86913C26.04 7.93946 26.725 8.90627 27.7402 9.18162C28.0969 9.27892 28.488 9.38451 28.8893 9.49423C29.8215 9.7468 30.5632 10.4652 30.8611 11.4009C31.159 12.3367 30.9705 13.3636 30.3646 14.1275C30.1012 14.4567 29.8458 14.7775 29.6128 15.0715C28.9521 15.9038 28.9521 17.0962 29.6128 17.9285C29.8458 18.2225 30.1012 18.5434 30.3646 18.8725C30.9705 19.6365 31.159 20.6633 30.8611 21.5991C30.5632 22.5348 29.8215 23.2532 28.8893 23.5058C28.488 23.6155 28.0969 23.7211 27.7402 23.8184C26.725 24.0937 26.04 25.0605 26.0967 26.1309C26.115 26.5077 26.1373 26.9196 26.1596 27.344C26.2122 28.3274 25.7725 29.2694 24.9943 29.8491C24.2141 30.4267 23.2008 30.5633 22.301 30.2093C21.914 30.0561 21.537 29.907 21.1925 29.7704C20.2117 29.3853 19.1011 29.7538 18.5317 30.6544C18.3311 30.9711 18.1102 31.3169 17.8852 31.675C17.3604 32.5011 16.4626 33 15.5 33C14.5374 33 13.6396 32.5011 13.1148 31.675C12.8898 31.3169 12.6689 30.9711 12.4683 30.6544C11.8989 29.7538 10.7883 29.3853 9.80748 29.7704C9.46297 29.907 9.08603 30.0561 8.69896 30.2093C7.79918 30.5633 6.78592 30.4267 6.0057 29.8491C5.22751 29.2694 4.78776 28.3274 4.84045 27.344C4.86274 26.9196 4.88503 26.5077 4.90327 26.1309C4.96001 25.0605 4.27504 24.0937 3.25975 23.8184C2.90308 23.7211 2.51196 23.6155 2.11071 23.5058C1.1785 23.2532 0.436794 22.5348 0.138894 21.5991C-0.159006 20.6633 0.0294616 19.6365 0.635394 18.8725C0.898843 18.5434 1.15419 18.2225 1.38724 17.9285C2.04789 17.0962 2.04789 15.9038 1.38724 15.0715C1.15419 14.7775 0.898843 14.4567 0.635394 14.1275C0.0294616 13.3636 -0.159006 12.3367 0.138894 11.4009C0.436794 10.4652 1.1785 9.7468 2.11071 9.49423C2.51196 9.38451 2.90308 9.27892 3.25975 9.18162C4.27504 8.90627 4.96001 7.93946 4.90327 6.86913C4.88503 6.49235 4.86274 6.08036 4.84045 5.65596C4.78776 4.67259 5.22751 3.73061 6.0057 3.15094C6.78592 2.57334 7.79918 2.4367 8.69896 2.79072C9.08603 2.94391 9.46297 3.09297 9.80748 3.22961C10.7883 3.61468 11.8989 3.24617 12.4683 2.34561C12.6689 2.02886 12.8898 1.68312 13.1148 1.32497ZM20.6839 9.39279C19.9766 8.85038 18.9714 8.99944 18.4405 9.72196L9.81963 21.4893C9.28868 22.2139 9.43257 23.2408 10.1419 23.7811C10.8491 24.3235 11.8563 24.1765 12.3852 23.4519L21.0081 11.6846C21.537 10.962 21.3932 9.93519 20.6839 9.39279ZM20.6839 16.4979C22.7205 16.4979 24.3742 18.1873 24.3742 20.2679C24.3742 22.3485 22.7205 24.0378 20.6839 24.0378C18.6492 24.0378 16.9956 22.3485 16.9956 20.2679C16.9956 18.1873 18.6492 16.4979 20.6839 16.4979ZM20.6839 19.1644C21.2797 19.1644 21.764 19.6592 21.764 20.2679C21.764 20.8765 21.2797 21.3713 20.6839 21.3713C20.0881 21.3713 19.6058 20.8765 19.6058 20.2679C19.6058 19.6592 20.0881 19.1644 20.6839 19.1644ZM10.1419 8.9601C12.1785 8.9601 13.8322 10.6494 13.8322 12.7301C13.8322 14.8086 12.1785 16.4979 10.1419 16.4979C8.10519 16.4979 6.45154 14.8086 6.45154 12.7301C6.45154 10.6494 8.10519 8.9601 10.1419 8.9601ZM10.1419 11.6266C10.7377 11.6266 11.22 12.1214 11.22 12.7301C11.22 13.3366 10.7377 13.8314 10.1419 13.8314C9.54605 13.8314 9.06171 13.3366 9.06171 12.7301C9.06171 12.1214 9.54605 11.6266 10.1419 11.6266Z" fill="#E98B76"/>
</svg>
