<svg width="34" height="31" viewBox="0 0 34 31" fill="none" xmlns="http://www.w3.org/2000/svg">
<path fill-rule="evenodd" clip-rule="evenodd" d="M31.875 31H10.625C9.452 31 8.5 30.0393 8.5 28.8556V28.2122C8.5 22.894 12.7713 18.5751 18.037 18.5623V16.8553C16.1458 15.738 14.875 13.6665 14.875 11.299V6.43331C14.875 2.88212 17.731 0 21.25 0C24.769 0 27.625 2.88212 27.625 6.43331V11.299C27.625 13.6665 26.3543 15.738 24.463 16.8553V18.5623C29.7288 18.5751 34 22.894 34 28.2122V28.8556C34 30.0393 33.048 31 31.875 31ZM5.39962 26.7111H1.60013C0.71825 26.7111 0 25.9863 0 25.0964C0 21.2171 3.0175 18.0433 6.81275 17.8374V16.6065C5.46125 15.8088 4.55387 14.3291 4.55387 12.6393V9.86227C4.55387 7.3254 6.59387 5.26674 9.10775 5.26674C10.0682 5.26674 10.9607 5.56911 11.696 6.08163C11.6918 6.19314 11.6896 6.3025 11.6875 6.41187C11.6875 8.09525 11.6748 9.78078 11.6896 11.4642C11.7024 12.0067 11.7513 12.5471 11.8511 13.0832C12.0063 13.9174 12.274 14.7194 12.6331 15.485L12.6523 15.5214C12.3059 15.9546 11.8809 16.3235 11.4028 16.6065V17.2413C11.0649 17.4493 10.7355 17.6745 10.4189 17.9168C8.19825 19.5959 6.5535 22.0019 5.79488 24.6975C5.61 25.3558 5.47825 26.0313 5.39962 26.7111Z" fill="#E98B76"/>
</svg>
