<svg width="18" height="18" viewBox="0 0 18 18" fill="none" xmlns="http://www.w3.org/2000/svg">
<path fill-rule="evenodd" clip-rule="evenodd" d="M8.90043 14.7173C7.85461 15.4262 6.08552 16.5979 4.31032 17.7732C4.03421 18.0108 3.64814 18.0696 3.26206 17.912C2.70006 17.682 2.58766 17.1055 2.81246 16.5303L4.27489 10.8885L0.360415 7.21983C0.147831 7.04353 0 6.77844 0 6.51335C0 5.93817 0.449603 5.59181 0.899206 5.59181H5.99756L8.05376 0.68022C8.24191 0.242578 8.58155 0 8.99939 0H9.00916C9.42211 0.00625202 9.75932 0.245079 9.94502 0.68022L12.0024 5.59181H17.0996C17.5492 5.59181 18 5.93817 18 6.51335C18 6.77844 17.8509 7.04353 17.6384 7.21983L13.7251 10.8885L15.1875 16.5303C15.4123 17.1055 15.2999 17.682 14.7367 17.912C14.3519 18.0696 13.9658 18.0108 13.6885 17.7732C11.8571 16.5603 10.0305 15.35 8.99939 14.6497L8.90043 14.7173Z" fill="#E98B76"/>
</svg>
