<svg width="37" height="37" viewBox="0 0 37 37" fill="none" xmlns="http://www.w3.org/2000/svg">
<path fill-rule="evenodd" clip-rule="evenodd" d="M27.544 1.35648C26.6782 0.488426 25.5 0 24.2731 0C21.3194 0 15.6806 0 12.7269 0C11.5 0 10.3218 0.488426 9.45602 1.35648C6.83565 3.97454 3.97454 6.83565 1.35648 9.45602C0.488426 10.3218 0 11.5 0 12.7269C0 15.6806 0 21.3194 0 24.2731C0 25.5 0.488426 26.6782 1.35648 27.544C3.97454 30.1644 6.83565 33.0255 9.45602 35.6435C10.3218 36.5116 11.5 37 12.7269 37C15.6806 37 21.3194 37 24.2731 37C25.5 37 26.6782 36.5116 27.544 35.6435C30.1644 33.0255 33.0255 30.1644 35.6435 27.544C36.5116 26.6782 37 25.5 37 24.2731C37 21.3194 37 15.6806 37 12.7269C37 11.5 36.5116 10.3218 35.6435 9.45602C33.0255 6.83565 30.1644 3.97454 27.544 1.35648ZM25.4445 16.1852H11.5556C10.2779 16.1852 9.24083 17.2223 9.24083 18.5001C9.24083 19.7778 10.2779 20.8149 11.5556 20.8149H25.4445C26.7223 20.8149 27.7593 19.7778 27.7593 18.5001C27.7593 17.2223 26.7223 16.1852 25.4445 16.1852Z" fill="#E98B76"/>
</svg>
